<svg width="672" height="70" viewBox="0 0 672 70" fill="none" xmlns="http://www.w3.org/2000/svg">
<g clip-path="url(#clip0_94_777)">
<path d="M28.0123 63.0007H35.0146V55.998H42.0168V48.9987H49.019V55.998H56.0213V63.0007H63.0269V70H91.0358V0H63.0269V35H56.0213V28.0007H49.019V21.0013H42.0168V28.0007H35.0146V35H28.0123V0H0V70H28.0123V63.0007Z" fill="#0F051D"/>
<path d="M147.046 13.9987H168.053V0H98.0273V13.9987H119.034V70H147.046V13.9987Z" fill="#0F051D"/>
<path d="M175.014 70H245.043V63.0007H252.045V35H245.043V28.0007H224.036H203.026V13.9987H252.045V0H182.019V6.99933H175.014V35H182.019V41.9993H224.036V55.998H175.014V70Z" fill="#0F051D"/>
<path d="M308.036 63.0007H315.038V55.998H322.041V48.9987H329.043V41.9993H336.045V0H308.036V35H301.03V41.9993H294.028V48.9987H287.026V0H259.014V70H308.036V63.0007Z" fill="#0F051D"/>
<path d="M350.016 70H420.045V55.998H371.026V41.9993H392.036V28.0007H371.026V13.9987H420.045V0H350.016V6.99933H343.014V63.0007H350.016V70Z" fill="#0F051D"/>
<path d="M455.026 41.9993H476.036V70H504.048V41.9993H497.046V28.0007H504.048V6.99933H497.046V0H476.036H455.026H427.014V70H455.026V41.9993ZM455.026 13.9987H476.036V27.9973H455.026V13.9987Z" fill="#0F051D"/>
<path d="M511.014 70H581.043V63.0007H588.045V35H581.043V28.0007H560.033H539.026V13.9987H588.045V0H518.016V6.99933H511.014V35H518.016V41.9993H560.033V55.998H511.014V70Z" fill="#0F051D"/>
<path d="M602.016 70H672.045V55.998H623.026V41.9993H644.033V28.0007H623.026V13.9987H672.045V0H602.016V6.99933H595.014V63.0007H602.016V70Z" fill="#0F051D"/>
</g>
<defs>
<clipPath id="clip0_94_777">
<rect width="672" height="70" fill="white"/>
</clipPath>
</defs>
</svg>
