<svg xmlns="http://www.w3.org/2000/svg" width="70" height="70" viewBox="0 0 70 70" fill="none"><g clip-path="url(#clip0_524_540)"><path d="M14.4735 53.7573C12.0724 54.6606 9.7713 54.761 7.4702 53.9581C3.36825 52.6533 0.867058 49.8431 0.166724 45.5275C-0.533609 41.1114 0.967106 37.3979 4.76892 34.9892C8.87087 32.3797 13.273 29.971 17.475 27.5622C17.8752 27.3615 18.2754 26.96 18.5755 26.5586C24.9785 18.5294 31.2815 10.3999 37.6846 2.17003C38.8852 0.564195 40.3859 -0.23872 42.3868 0.0623729C43.8876 0.263102 44.9881 1.16638 45.7885 2.47112C47.4893 5.38169 49.1901 8.29226 50.7908 11.3032C51.091 11.805 51.3911 12.0057 51.8914 11.9054C53.4921 11.805 55.0929 11.7046 56.5936 11.6043C57.494 11.5039 58.0943 11.9054 58.4945 12.6079C59.3949 14.2138 60.2954 15.7192 61.1958 17.2247C61.696 18.0276 61.596 18.6298 61.0958 19.4327C60.1953 20.7374 59.2949 22.1425 58.3945 23.5476C58.0943 23.9491 58.1944 24.1498 58.3945 24.5513C59.9952 27.2611 61.596 29.971 63.0967 32.7812C64.5974 35.5914 63.0967 38.9034 60.0953 39.5056C58.2944 39.8067 56.3935 40.2081 54.5927 40.5092C46.7889 42.0147 39.0853 43.5202 31.2815 45.126C31.0815 45.126 30.8814 45.2264 30.4812 45.3267C30.8814 46.1296 31.2815 46.8322 31.7818 47.5347C33.0824 49.8431 33.0824 50.1442 30.7813 51.449C29.8809 51.9508 28.9805 52.4526 28.08 53.0548C28.1801 53.3559 28.3802 53.5566 28.4802 53.7573C29.9809 56.3668 31.4816 58.8759 32.8823 61.5858C34.283 64.2956 33.0824 67.708 30.3811 69.2135C27.7799 70.7189 24.2782 70.0164 22.5774 67.5073C21.4769 66.0018 20.6765 64.2956 19.676 62.6898C18.0753 59.9799 16.5745 57.2701 14.9738 54.4599C14.7737 54.2592 14.6736 54.0584 14.4735 53.7573ZM55.293 37.2976C49.4902 27.1608 43.6875 17.1243 37.7846 6.88715C37.6846 7.08788 37.6846 7.18825 37.5846 7.18825C32.0819 14.2138 26.6794 21.1389 21.1767 28.064C20.8766 28.4655 20.9766 28.6662 21.1767 28.9673C23.6779 33.283 26.0791 37.4983 28.5803 41.814C28.7804 42.2154 28.9805 42.3158 29.4807 42.2154C35.5836 41.0111 41.5865 39.8067 47.6894 38.6023C50.1906 38.3012 52.6917 37.7994 55.293 37.2976ZM18.5755 30.4728C15.5741 32.179 12.6727 33.8852 9.7713 35.5914C8.57073 36.2939 7.37016 36.8961 6.16958 37.699C3.4683 39.5056 2.26773 43.0183 3.2682 46.1296C4.76892 50.7464 9.9714 52.8541 14.2734 50.4453C18.0753 48.3377 21.8771 46.0293 25.6789 43.8213C25.7789 43.7209 25.879 43.7209 26.0791 43.6205C23.5779 39.3049 21.0767 34.8888 18.5755 30.4728ZM39.8857 4.37804C39.9857 4.67914 40.0857 4.87987 40.2858 5.18096C42.4869 8.99481 44.6879 12.8087 46.889 16.6225C50.5908 23.0458 54.2925 29.5695 57.9943 35.9928C58.0943 36.1936 58.2944 36.595 58.3945 36.595C58.9948 36.4947 59.595 36.3943 60.1953 36.0932C60.6956 35.7921 60.7956 35.1899 60.5955 34.4874C60.4955 34.1863 60.3954 33.9855 60.1953 33.7848C54.5927 23.9491 48.8899 14.1134 43.1872 4.17731C43.0872 3.97659 42.9871 3.87622 42.8871 3.67549C42.2868 2.77221 41.1863 2.77221 40.4859 3.57513C40.2858 3.77586 40.0857 4.07695 39.8857 4.37804ZM17.1748 52.3522C17.2749 52.553 17.3749 52.6533 17.3749 52.7537C19.7761 56.8686 22.0772 60.9836 24.4783 65.0985C24.5784 65.2992 24.7785 65.6003 24.9785 65.8011C26.2792 67.3065 28.6803 67.3065 29.7808 65.6003C30.5812 64.4963 30.4812 63.292 29.7808 62.0876C27.3797 57.9726 24.9785 53.8577 22.6775 49.7428C22.5774 49.6424 22.4774 49.4417 22.3773 49.2409C20.5764 50.345 18.8756 51.3486 17.1748 52.3522ZM52.7918 14.8159C53.9924 16.9236 55.1929 18.9309 56.3935 21.0385C56.9938 20.1353 57.5941 19.232 58.0943 18.4291C58.1944 18.3287 58.0943 18.0276 58.0943 17.9272C57.5941 16.9236 56.9938 15.92 56.3935 15.0167C56.2935 14.8159 56.0934 14.7156 55.9933 14.7156C54.9928 14.7156 53.9924 14.8159 52.7918 14.8159ZM24.9785 47.8358C25.4788 48.7391 25.979 49.542 26.4793 50.4453C27.3797 49.9435 28.1801 49.4417 29.0805 48.9398C28.5803 48.0366 28.08 47.1333 27.5798 46.3304C26.6794 46.8322 25.879 47.2337 24.9785 47.8358Z" fill="url(#paint0_linear_524_540)"></path><path d="M69.9999 10.0989C69.6998 10.3999 69.3996 10.8014 68.9995 11.0021C67.0985 12.1061 65.1976 13.2102 63.1967 14.2138C62.9966 14.3142 62.8965 14.4145 62.6965 14.5149C62.0962 14.7156 61.5959 14.5149 61.2958 14.0131C60.9956 13.5112 61.0957 12.8087 61.5959 12.5076C63.797 11.2029 66.0981 9.89813 68.3992 8.69375C68.9995 8.39266 69.4997 8.69375 69.9999 9.49667C69.9999 9.6974 69.9999 9.89813 69.9999 10.0989Z" fill="url(#paint1_linear_524_540)"></path><path d="M62.9994 19.7339C63.0995 19.7339 63.3996 19.8343 63.6998 19.9346C65.0004 20.2357 66.201 20.6372 67.5016 20.9383C68.302 21.139 68.7021 21.7412 68.502 22.4437C68.302 23.1463 67.7017 23.4474 66.9013 23.2467C65.5006 22.8452 64.1 22.5441 62.6993 22.1427C61.999 21.9419 61.5988 21.4401 61.6988 20.8379C61.6988 20.035 62.199 19.6335 62.9994 19.7339Z" fill="url(#paint2_linear_524_540)"></path><path d="M54.9941 9.19559C54.9941 9.09522 54.9941 8.99486 55.0942 8.79413C55.4944 7.38903 55.7945 6.08429 56.1947 4.67919C56.3948 3.87627 56.9951 3.47481 57.5954 3.67554C58.2957 3.87627 58.5959 4.47846 58.3958 5.28137C57.9956 6.68648 57.6954 8.19194 57.1952 9.59704C56.9951 10.2996 56.4949 10.6007 55.7945 10.5003C55.2943 10.2996 54.9941 9.89814 54.9941 9.19559Z" fill="url(#paint3_linear_524_540)"></path><path d="M10.8732 48.438C8.97233 48.3376 7.67171 47.7354 6.77128 46.4307C6.27104 45.6278 6.27104 44.8249 6.97137 44.2227C7.67171 43.7209 8.47209 43.8212 9.07237 44.5238C9.9728 45.5274 10.473 45.6278 11.6736 44.9252C12.3739 44.5238 13.0743 44.1223 13.7746 43.7209C14.675 43.219 15.5755 43.5201 15.9757 44.2227C16.3759 44.9252 16.1758 45.8285 15.3754 46.3303C14.3749 46.9325 13.4745 47.5347 12.3739 47.9362C11.7737 48.2373 11.1734 48.3376 10.8732 48.438Z" fill="url(#paint4_linear_524_540)"></path><path d="M19.877 43.4198C19.0766 43.4198 18.3763 42.7173 18.4764 41.9144C18.4764 41.1115 19.1767 40.5093 20.0771 40.5093C20.8775 40.5093 21.5778 41.2118 21.4778 42.0147C21.3777 42.8177 20.6774 43.5202 19.877 43.4198Z" fill="url(#paint5_linear_524_540)"></path></g><defs><linearGradient id="paint0_linear_524_540" x1="31.8427" y1="0" x2="31.8427" y2="70" gradientUnits="userSpaceOnUse"><stop stop-color="#FF00EA"></stop><stop offset="1" stop-color="#741FF5"></stop></linearGradient><linearGradient id="paint1_linear_524_540" x1="65.5634" y1="8.57922" x2="65.5634" y2="14.5918" gradientUnits="userSpaceOnUse"><stop stop-color="#FF00EA"></stop><stop offset="1" stop-color="#741FF5"></stop></linearGradient><linearGradient id="paint2_linear_524_540" x1="65.1183" y1="19.7188" x2="65.1183" y2="23.3077" gradientUnits="userSpaceOnUse"><stop stop-color="#FF00EA"></stop><stop offset="1" stop-color="#741FF5"></stop></linearGradient><linearGradient id="paint3_linear_524_540" x1="56.7254" y1="3.62439" x2="56.7254" y2="10.5191" gradientUnits="userSpaceOnUse"><stop stop-color="#FF00EA"></stop><stop offset="1" stop-color="#741FF5"></stop></linearGradient><linearGradient id="paint4_linear_524_540" x1="11.2969" y1="43.4717" x2="11.2969" y2="48.438" gradientUnits="userSpaceOnUse"><stop stop-color="#FF00EA"></stop><stop offset="1" stop-color="#741FF5"></stop></linearGradient><linearGradient id="paint5_linear_524_540" x1="19.9771" y1="40.5093" x2="19.9771" y2="43.4294" gradientUnits="userSpaceOnUse"><stop stop-color="#FF00EA"></stop><stop offset="1" stop-color="#741FF5"></stop></linearGradient><clipPath id="clip0_524_540"><rect width="70" height="70" fill="white"></rect></clipPath></defs></svg>