<svg xmlns="http://www.w3.org/2000/svg" width="70" height="70" viewBox="0 0 70 70" fill="none"><g clip-path="url(#clip0_524_566)"><path d="M60.6992 17.5H62.9992V33.8H60.6992V17.5Z" fill="url(#paint0_linear_524_566)"></path><path d="M0.2 57.1C0.3 57.3 0.3 57.5 0.4 57.8C0.4 57.9 0.5 58 0.5 58C0.8 58.7001 1.4 59.4 2.1 59.8C2.3 59.9 2.4 60 2.6 60.1C2.7 60.1 2.8 60.2001 2.9 60.2001C3.1 60.3 3.3 60.3001 3.5 60.4001C3.6 60.4001 3.7 60.5 3.7 60.5C4 60.6 4.3 60.6 4.6 60.6H36.1V58.3H4.7C4.5 58.3 4.4 58.3 4.2 58.3C4.1 58.3 4.1 58.3 4 58.2001C3.9 58.2001 3.8 58.1 3.7 58.1C3.6 58.1 3.5 58 3.5 58C3.4 58 3.4 57.9001 3.3 57.9001C3.2 57.8001 3.1 57.7 2.9 57.6C2.8 57.5 2.7 57.4 2.6 57.3C2.6 57.2001 2.5 57.2 2.5 57.1C2.5 57 2.4 57 2.4 56.9001C2.4 56.8001 2.3 56.7 2.3 56.6V56.5C2.2 55.8 2.3 55.1 2.8 54.6C3.3 54 4 53.7001 4.7 53.7001H8.2C8.8 53.7001 9.4 53.2001 9.4 52.5V11.7H50.2V9.30005H9.3V3.50005C9.3 2.90005 8.8 2.30005 8.1 2.30005H4.7C2.1 2.30005 0 4.40005 0 7.00005V56C0 56.3 0 56.6001 0.1 56.9001C0.1 57 0.1 57.1 0.2 57.1ZM2.3 7.00005C2.3 5.70005 3.3 4.70005 4.6 4.70005H7V51.4001H4.7C3.9 51.4001 3.1 51.6 2.4 52V7.00005H2.3Z" fill="url(#paint1_linear_524_566)"></path><path d="M31.7008 26.4L29.2008 23.3H39.6008V21H26.8008C26.5008 21 26.1008 21.2 25.9008 21.4L16.6008 33.1C16.5008 33.2 16.5008 33.3 16.4008 33.4C16.3008 33.5 16.3008 33.7 16.3008 33.8V47.8C16.3008 48.4 16.8008 49 17.5008 49H47.8008V46.7H37.3008V35H53.6008V42H56.0008V33.8C56.0008 33.7 56.0008 33.5 55.9008 33.4C55.9008 33.3 55.8008 33.2 55.8008 33.1L52.3008 28.7L50.5008 30.2L52.5008 32.7H36.7008L31.7008 26.4ZM26.8008 24L31.4008 29.8L33.7008 32.7H19.9008L26.8008 24ZM18.7008 35H35.0008V46.7H31.5008V38.5C31.5008 37.9 31.0008 37.3 30.3008 37.3H23.3008C22.7008 37.3 22.1008 37.8 22.1008 38.5V46.7H18.6008V35H18.7008ZM24.5008 46.7V39.7H29.2008V46.7H24.5008Z" fill="url(#paint2_linear_524_566)"></path><path d="M43.2 37.3C42.6 37.3 42 37.8 42 38.5V43.2001C42 43.8001 42.5 44.4001 43.2 44.4001H47.9C48.5 44.4001 49.1 43.9001 49.1 43.2001V38.5C49.1 37.9 48.6 37.3 47.9 37.3H43.2ZM46.7 42H44.4V39.7001H46.7V42Z" fill="url(#paint3_linear_524_566)"></path><path d="M69.3004 31.6C68.9004 31.4 68.4004 31.5 68.0004 31.9L31.8004 68C31.5004 68.3 31.4004 68.8 31.5004 69.3C31.6004 69.8 32.1004 70 32.6004 70H68.8004C69.4004 70 70.0004 69.5 70.0004 68.8V32.7C70.0004 32.2 69.7004 31.8 69.3004 31.6ZM67.7004 67.7H35.5004L67.7004 35.5V67.7Z" fill="url(#paint4_linear_524_566)"></path><path d="M49.1001 62.3C49.3001 62.7 49.7001 63 50.2001 63H61.9001C62.5001 63 63.1001 62.5 63.1001 61.8V50.2C63.1001 49.7 62.8001 49.3 62.4001 49.1C62.0001 48.9 61.3001 49 61.0001 49.3L49.3001 61C49.0001 61.3 48.9001 61.8 49.1001 62.3ZM60.7001 53V60.7H53.0001L60.7001 53Z" fill="url(#paint5_linear_524_566)"></path><path d="M65.0008 0.300049C64.5008 -0.199951 63.8008 -0.199951 63.4008 0.300049L42.4008 21.3C42.3008 21.4 42.2008 21.6 42.1008 21.8L40.9008 25.3C40.8008 25.7 40.9008 26.2001 41.2008 26.5L41.5008 26.8L38.8008 29.5L40.4008 31.1L43.1008 28.4L43.4008 28.7001C43.6008 28.9001 43.9008 29 44.2008 29C44.3008 29 44.4008 29 44.6008 28.9L48.1008 27.7001C48.3008 27.6 48.4008 27.5 48.6008 27.4L69.6008 6.40005C70.1008 5.90005 70.1008 5.20005 69.6008 4.80005L65.0008 0.300049ZM45.4008 21.6L50.2008 16.8L53.2008 19.8L48.4008 24.6L45.4008 21.6ZM44.6008 26.7001L43.3008 25.4L43.9008 23.5L46.5008 26.1L44.6008 26.7001ZM54.8008 18.2001L51.8008 15.2L64.2008 2.80005L67.2008 5.80005L54.8008 18.2001Z" fill="url(#paint6_linear_524_566)"></path><path d="M11.6992 49V52.5C11.6992 53.1 12.1992 53.7 12.8992 53.7H16.3992V51.4H13.9992V49H11.6992Z" fill="url(#paint7_linear_524_566)"></path><path d="M16.2996 14H12.7996C12.1996 14 11.5996 14.5 11.5996 15.2V18.7H13.9996V16.4H16.2996V14Z" fill="url(#paint8_linear_524_566)"></path></g><defs><linearGradient id="paint0_linear_524_566" x1="61.8492" y1="17.5" x2="61.8492" y2="33.8" gradientUnits="userSpaceOnUse"><stop stop-color="#FF00EA"></stop><stop offset="1" stop-color="#741FF5"></stop></linearGradient><linearGradient id="paint1_linear_524_566" x1="25.1" y1="2.30005" x2="25.1" y2="60.6" gradientUnits="userSpaceOnUse"><stop stop-color="#FF00EA"></stop><stop offset="1" stop-color="#741FF5"></stop></linearGradient><linearGradient id="paint2_linear_524_566" x1="36.1508" y1="21" x2="36.1508" y2="49" gradientUnits="userSpaceOnUse"><stop stop-color="#FF00EA"></stop><stop offset="1" stop-color="#741FF5"></stop></linearGradient><linearGradient id="paint3_linear_524_566" x1="45.55" y1="37.3" x2="45.55" y2="44.4001" gradientUnits="userSpaceOnUse"><stop stop-color="#FF00EA"></stop><stop offset="1" stop-color="#741FF5"></stop></linearGradient><linearGradient id="paint4_linear_524_566" x1="50.7316" y1="31.5" x2="50.7316" y2="70" gradientUnits="userSpaceOnUse"><stop stop-color="#FF00EA"></stop><stop offset="1" stop-color="#741FF5"></stop></linearGradient><linearGradient id="paint5_linear_524_566" x1="56.0481" y1="48.996" x2="56.0481" y2="63" gradientUnits="userSpaceOnUse"><stop stop-color="#FF00EA"></stop><stop offset="1" stop-color="#741FF5"></stop></linearGradient><linearGradient id="paint6_linear_524_566" x1="54.3883" y1="-0.0749512" x2="54.3883" y2="31.1" gradientUnits="userSpaceOnUse"><stop stop-color="#FF00EA"></stop><stop offset="1" stop-color="#741FF5"></stop></linearGradient><linearGradient id="paint7_linear_524_566" x1="14.0492" y1="49" x2="14.0492" y2="53.7" gradientUnits="userSpaceOnUse"><stop stop-color="#FF00EA"></stop><stop offset="1" stop-color="#741FF5"></stop></linearGradient><linearGradient id="paint8_linear_524_566" x1="13.9496" y1="14" x2="13.9496" y2="18.7" gradientUnits="userSpaceOnUse"><stop stop-color="#FF00EA"></stop><stop offset="1" stop-color="#741FF5"></stop></linearGradient><clipPath id="clip0_524_566"><rect width="70" height="70" fill="white"></rect></clipPath></defs></svg>