<svg xmlns="http://www.w3.org/2000/svg" width="70" height="70" viewBox="0 0 70 70" fill="none"><g clip-path="url(#clip0_540_129)"><path d="M64.1792 8.74251H49.5971V5.82501C49.5871 2.61776 46.9767 0 43.7563 0H26.2538C23.0333 0 20.4229 2.61776 20.4229 5.82501V8.74251H5.83083C2.62037 8.74251 0 11.3603 0 14.5775V64.175C0 67.3822 2.62037 70 5.83083 70H64.1692C67.3896 70 70 67.3822 70 64.175V14.5775C70 11.3603 67.3796 8.7525 64.1692 8.7525L64.1792 8.74251ZM23.3433 5.82501C23.3433 4.21639 24.6535 2.90751 26.2638 2.90751H43.7663C45.3765 2.90751 46.6867 4.21639 46.6867 5.82501V8.74251H23.3533V5.82501H23.3433ZM67.0996 64.165C67.0996 65.7736 65.7894 67.0825 64.1792 67.0825H5.83083C4.2206 67.0825 2.91042 65.7736 2.91042 64.165V31.2432C3.77054 31.7428 4.76068 32.0525 5.83083 32.0525H29.1642V36.4188C29.1642 37.2281 29.8143 37.8775 30.6244 37.8775H39.3756C40.1857 37.8775 40.8358 37.2281 40.8358 36.4188V32.0525H64.1692C65.2393 32.0525 66.2295 31.7428 67.0896 31.2432V64.165H67.0996ZM32.0946 34.97V29.145H37.9254V34.97H32.0946ZM67.0996 26.2275C67.0996 27.8361 65.7894 29.145 64.1792 29.145H40.8458V27.6863C40.8458 26.877 40.1957 26.2275 39.3856 26.2275H30.6344C29.8243 26.2275 29.1742 26.877 29.1742 27.6863V29.145H5.83083C4.2206 29.145 2.91042 27.8361 2.91042 26.2275V14.5675C2.91042 12.9589 4.2206 11.65 5.83083 11.65H64.1692C65.7794 11.65 67.0896 12.9589 67.0896 14.5675V26.2275H67.0996Z" fill="url(#paint0_linear_540_129)"></path></g><defs><linearGradient id="paint0_linear_540_129" x1="35" y1="0" x2="35" y2="70" gradientUnits="userSpaceOnUse"><stop stop-color="#FF00EA"></stop><stop offset="1" stop-color="#741FF5"></stop></linearGradient><clipPath id="clip0_540_129"><rect width="70" height="70" fill="white"></rect></clipPath></defs></svg>