<svg xmlns="http://www.w3.org/2000/svg" width="70" height="70" viewBox="0 0 70 70" fill="none"><g clip-path="url(#clip0_538_11)"><path d="M62.3333 34.3302L45.7204 17.2351L50.6583 12.1565L49.049 10.497L22.8002 37.4993C22.3504 37.9592 22.3504 38.6989 22.8002 39.1588C25.769 42.1979 30.5669 42.1979 33.5256 39.1588L35.2049 37.4393C38.0737 38.8989 41.4123 39.0888 44.421 37.9592L56.036 49.9057C56.8456 50.7455 56.8456 52.0951 56.036 52.9349C55.4362 53.5447 54.5466 53.7346 53.767 53.4047C53.5171 53.2948 53.2872 53.1348 53.0872 52.9349L44.9207 44.5273L43.3114 46.1868L51.4779 54.5944C52.2876 55.4342 52.2876 56.7938 51.4779 57.6235C50.8782 58.2334 49.9886 58.4233 49.2089 58.0934C48.959 57.9834 48.7291 57.8235 48.5292 57.6235L40.3627 49.2159L38.7534 50.8755L46.9199 59.2831C47.7295 60.1228 47.7295 61.4824 46.9199 62.3122C46.3201 62.922 45.4305 63.112 44.6509 62.7821C44.401 62.6721 44.1711 62.5121 43.9712 62.3122L35.8047 53.9046L34.1953 55.5641L42.3618 63.9717C43.1715 64.8115 43.1715 66.1711 42.3618 67.0009C41.7621 67.6107 40.8725 67.8006 40.0928 67.4707C39.8429 67.3608 39.613 67.2008 39.4131 67.0009L13.8241 40.6684L30.437 23.5733L31.6964 24.8729L33.3057 23.2134L10.7254 0L9.11609 1.65953L24.2596 17.2351L7.63673 34.3302L1.60931 28.122L0 29.7815L19.7016 50.0457L16.8928 52.9349C16.0831 53.7746 14.7637 53.7746 13.954 52.9349C13.1544 52.0951 13.1544 50.7455 13.954 49.9057L15.2835 48.5361L13.6741 46.8766L12.3447 48.2462C10.6454 49.9957 10.6454 52.8449 12.3447 54.5944C13.1644 55.4342 14.2739 55.904 15.4334 55.904C15.5034 55.904 15.5633 55.904 15.6333 55.904C15.6333 55.974 15.6333 56.044 15.6333 56.114C15.6333 58.5933 17.5825 60.6027 19.9914 60.6027C20.0614 60.6027 20.1214 60.6027 20.1913 60.6027C20.1913 60.6727 20.1913 60.7426 20.1913 60.8126C20.1913 63.2919 22.1405 65.3013 24.5495 65.3013C24.6194 65.3013 24.6794 65.3013 24.7494 65.3013C24.7494 65.3713 24.7494 65.4413 24.7494 65.5113C24.7494 67.9906 26.6986 70 29.1075 70C30.267 70 31.3766 69.5301 32.1962 68.6804L35.005 65.7912L37.8138 68.6804C39.5131 70.4299 42.2819 70.4299 43.9812 68.6804C44.8008 67.8406 45.2606 66.7009 45.2606 65.5113C45.2606 65.4413 45.2606 65.3713 45.2606 65.3013C45.3306 65.3013 45.3905 65.3013 45.4605 65.3013C47.8695 65.3013 49.8186 63.2919 49.8186 60.8126C49.8186 60.7426 49.8186 60.6727 49.8186 60.6027C49.8886 60.6027 49.9486 60.6027 50.0186 60.6027C52.4275 60.6027 54.3767 58.5933 54.3767 56.114C54.3767 56.044 54.3767 55.974 54.3767 55.904C54.4467 55.904 54.5066 55.904 54.5766 55.904C56.9856 55.904 58.9347 53.8946 58.9347 51.4153C58.9347 50.2257 58.4749 49.086 57.6553 48.2462L46.59 36.8595C46.68 36.7995 46.77 36.7395 46.8599 36.6795L48.1694 35.7798L46.9099 33.8303L45.6005 34.7301C42.5917 36.7795 38.6934 36.8795 35.5947 34.97C35.1449 34.6901 34.5752 34.7701 34.2053 35.15L31.9263 37.4893C30.1671 39.2988 27.4182 39.6087 25.3191 38.2291L39.573 23.5633L56.1859 40.6584L54.7166 42.178L56.3259 43.8375L70 29.7715L68.3907 28.112L62.3633 34.3202L62.3333 34.3302ZM9.25603 35.9897L25.8689 18.8946L28.8176 21.9237L12.2048 39.0189L9.25603 35.9897ZM21.4508 57.6335C21.2609 57.8335 21.031 57.9834 20.7711 58.0934C19.7116 58.5533 18.4921 58.0334 18.0523 56.9437C17.7224 56.144 17.9023 55.2142 18.5021 54.6044L21.3109 51.7152L24.2596 54.7444L21.4508 57.6335ZM26.0089 62.3222C25.8189 62.5221 25.589 62.6721 25.3291 62.7821C24.2696 63.2419 23.0501 62.7321 22.6103 61.6424C22.2805 60.8426 22.4604 59.9129 23.0601 59.2931L25.8689 56.4039L28.8176 59.433L26.0089 62.3222ZM30.5669 67.0109C29.7572 67.8506 28.4378 67.8506 27.6182 67.0109C26.7985 66.1711 26.8085 64.8215 27.6182 63.9817L30.427 61.0925L33.3757 64.1217L30.5669 67.0109ZM57.7752 39.0289L41.1624 21.9337L44.1111 18.9046L60.724 35.9997L57.7752 39.0289ZM59.2446 0L60.8539 1.65953L52.2176 10.547L50.6083 8.88746L59.2446 0ZM62.3333 28.9617C64.2225 28.9617 65.7518 27.3922 65.7518 25.4427C65.7518 23.4933 64.2225 21.9237 62.3333 21.9237C60.4441 21.9237 58.9147 23.4933 58.9147 25.4427C58.9147 27.3822 60.4441 28.9517 62.3333 28.9617ZM62.3333 24.2731C62.963 24.2731 63.4728 24.7929 63.4728 25.4427C63.4728 26.0925 62.963 26.6124 62.3333 26.6124C61.7036 26.6124 61.1938 26.0925 61.1938 25.4427C61.1938 24.7929 61.7036 24.2731 62.3333 24.2731ZM11.0653 25.4427C11.0653 23.5033 9.53591 21.9237 7.64672 21.9237C5.75753 21.9237 4.22819 23.4933 4.22819 25.4427C4.22819 27.3922 5.75753 28.9617 7.64672 28.9617C9.53591 28.9617 11.0653 27.3822 11.0653 25.4427ZM6.50721 25.4427C6.50721 24.7929 7.01699 24.2731 7.64672 24.2731C8.27645 24.2731 8.78623 24.7929 8.78623 25.4427C8.78623 26.0925 8.27645 26.6124 7.64672 26.6124C7.01699 26.6124 6.50721 26.0826 6.50721 25.4427ZM13.3443 59.433V61.7724C8.94617 61.7724 5.3777 58.0934 5.3677 53.5647H7.64672C7.64672 56.8038 10.1956 59.423 13.3443 59.423V59.433ZM62.3333 53.5747H64.6123C64.6123 58.1034 61.0438 61.7724 56.6357 61.7824V59.443C59.7844 59.443 62.3333 56.8138 62.3333 53.5847V53.5747Z" fill="url(#paint0_linear_538_11)"></path></g><defs><linearGradient id="paint0_linear_538_11" x1="35" y1="0" x2="35" y2="70" gradientUnits="userSpaceOnUse"><stop stop-color="#FF00EA"></stop><stop offset="1" stop-color="#741FF5"></stop></linearGradient><clipPath id="clip0_538_11"><rect width="70" height="70" fill="white"></rect></clipPath></defs></svg>