<svg xmlns="http://www.w3.org/2000/svg" width="70" height="70" viewBox="0 0 70 70" fill="none"><g clip-path="url(#clip0_524_496)"><path d="M7.89961 43.4C5.79961 43.4 4.09961 45.4 4.09961 47.9C4.09961 49 4.39961 50 4.99961 50.8L13.0996 62.1C13.0996 62.1 13.0996 62.2 13.1996 62.2C14.4996 64 16.4996 65.1 18.5996 65.1H51.3996C53.5996 65.1 55.4996 64 56.7996 62.2L56.8996 62.1L64.9996 50.9C65.4996 50.1 65.8996 49.1 65.8996 48C65.8996 45.5 64.1996 43.5 62.0996 43.5H7.89961V43.4ZM7.89961 45.9C8.89961 45.9 9.69961 46.8 9.69961 48C9.69961 49.2 8.89961 50 7.89961 50C6.89961 50 6.19961 49.1 6.19961 48C6.19961 46.9 6.89961 45.9 7.89961 45.9ZM13.4996 56.7C13.4996 53.4 15.7996 50.7 18.5996 50.7C21.3996 50.7 23.6996 53.4 23.6996 56.7C23.6996 60 21.3996 62.7 18.5996 62.7C15.7996 62.7 13.4996 60.1 13.4996 56.7ZM29.8996 56.7C29.8996 53.4 32.1996 50.7 34.9996 50.7C37.7996 50.7 40.0996 53.4 40.0996 56.7C40.0996 60 37.7996 62.7 34.9996 62.7C32.1996 62.7 29.8996 60.1 29.8996 56.7ZM39.9996 62.8C41.2996 61.3 42.1996 59.1 42.1996 56.8C42.1996 52.1 38.9996 48.4 34.9996 48.4C30.9996 48.4 27.7996 52.2 27.7996 56.8C27.7996 59.2 28.5996 61.3 29.9996 62.8H23.5996C24.8996 61.3 25.7996 59.1 25.7996 56.8C25.7996 52.1 22.5996 48.4 18.5996 48.4C14.7996 48.4 11.6996 51.9 11.3996 56.2L8.69961 52.5C10.3996 52.1 11.6996 50.3 11.6996 48.1C11.6996 47.3 11.4996 46.6 11.2996 46H58.6996C58.3996 46.6 58.2996 47.3 58.2996 48.1C58.2996 50.3 59.5996 52.1 61.2996 52.5L58.5996 56.2C58.2996 51.8 55.1996 48.4 51.3996 48.4C47.3996 48.4 44.1996 52.2 44.1996 56.8C44.1996 59.2 44.9996 61.3 46.3996 62.8H39.9996ZM51.3996 62.8C48.5996 62.8 46.2996 60.1 46.2996 56.8C46.2996 53.5 48.5996 50.8 51.3996 50.8C54.1996 50.8 56.4996 53.5 56.4996 56.8C56.4996 60.1 54.1996 62.8 51.3996 62.8ZM63.7996 48C63.7996 49.2 62.9996 50.1 61.9996 50.1C60.9996 50.1 60.1996 49.2 60.1996 48C60.1996 46.8 60.9996 45.9 61.9996 45.9C62.9996 45.9 63.7996 46.8 63.7996 48Z" fill="url(#paint0_linear_524_496)"></path><path d="M21.7 56.7C21.7 54.7 20.3 53.1 18.6 53.1C16.9 53.1 15.5 54.7 15.5 56.7C15.5 58.7 16.9 60.3 18.6 60.3C20.3 60.3 21.7 58.7 21.7 56.7ZM17.6 56.7C17.6 56 18.1 55.5 18.6 55.5C19.2 55.5 19.6 56 19.6 56.7C19.6 57.4 19.1 57.9 18.6 57.9C18 57.9 17.6 57.4 17.6 56.7Z" fill="url(#paint1_linear_524_496)"></path><path d="M35.0004 53.1C33.3004 53.1 31.9004 54.7 31.9004 56.7C31.9004 58.7 33.3004 60.3 35.0004 60.3C36.7004 60.3 38.1004 58.7 38.1004 56.7C38.1004 54.7 36.7004 53.1 35.0004 53.1ZM35.0004 57.9C34.4004 57.9 34.0004 57.4 34.0004 56.7C34.0004 56 34.5004 55.5 35.0004 55.5C35.5004 55.5 36.0004 56 36.0004 56.7C36.0004 57.4 35.6004 57.9 35.0004 57.9Z" fill="url(#paint2_linear_524_496)"></path><path d="M51.4008 53.1C49.7008 53.1 48.3008 54.7 48.3008 56.7C48.3008 58.7 49.7008 60.3 51.4008 60.3C53.1008 60.3 54.5008 58.7 54.5008 56.7C54.5008 54.7 53.1008 53.1 51.4008 53.1ZM51.4008 57.9C50.8008 57.9 50.4008 57.4 50.4008 56.7C50.4008 56 50.9008 55.5 51.4008 55.5C51.9008 55.5 52.4008 56 52.4008 56.7C52.4008 57.4 52.0008 57.9 51.4008 57.9Z" fill="url(#paint3_linear_524_496)"></path><path d="M41.2 26.6C41.8 26.6 42.2 26.1 42.2 25.4V24.2H69C69.6 24.2 70 23.7 70 23V18.2C70 17.5 69.5 17 69 17H42.2V15.8C42.2 15.1 41.7 14.6 41.2 14.6H32V1.2C32 0.5 31.5 0 31 0C30.5 0 30 0.5 30 1.2V14.5H27.9V10.9C27.9 10.2 27.4 9.7 26.9 9.7H19.1C16.3 9.7 14 12.4 14 15.7V25.4C14 26.1 14.5 26.6 15 26.6H18.1V29H15C14.7 29 14.4 29.2 14.2 29.4L7.6 38.6C3.3 38.9 0 43 0 48C0 50.2 0.7 52.3 1.9 54L10 65.3C12.2 68.3 15.3 70 18.6 70H51.4C54.7 70 57.9 68.3 60 65.3L68.1 54C69.3 52.3 70 50.2 70 48C70 43 66.7 39 62.6 38.7L56 29.5C55.8 29.2 55.5 29.1 55.2 29.1H38.1V26.7H41.2V26.6ZM67.9 21.7H61.7V19.3H67.9V21.7ZM59.7 19.3V21.7H42.2V19.3H59.7ZM18.9 12.1H25.7V14.5H16C16.5 13.1 17.6 12.1 18.9 12.1ZM15.3 31.4H25.7V38.6H10.1L15.3 31.4ZM67.9 48C67.9 49.6 67.4 51.2 66.5 52.5L58.4 63.8C56.6 66.3 54.1 67.7 51.3 67.7H18.6C15.9 67.7 13.3 66.3 11.5 63.8L3.4 52.4C2.5 51.2 2 49.6 2 47.9C2 44.1 4.6 41 7.9 41H62C65.3 41 67.9 44.1 67.9 48ZM59.9 38.6H27.9V31.4H54.8L59.9 38.6ZM36 29H20V25.4C20 24.7 19.5 24.2 19 24.2H15.9V17H40.2V24.2H23C22.4 24.2 22 24.7 22 25.4C22 26.1 22.5 26.6 23 26.6H36V29Z" fill="url(#paint4_linear_524_496)"></path></g><defs><linearGradient id="paint0_linear_524_496" x1="34.9996" y1="43.4" x2="34.9996" y2="65.1" gradientUnits="userSpaceOnUse"><stop stop-color="#FF00EA"></stop><stop offset="1" stop-color="#741FF5"></stop></linearGradient><linearGradient id="paint1_linear_524_496" x1="18.6" y1="53.1" x2="18.6" y2="60.3" gradientUnits="userSpaceOnUse"><stop stop-color="#FF00EA"></stop><stop offset="1" stop-color="#741FF5"></stop></linearGradient><linearGradient id="paint2_linear_524_496" x1="35.0004" y1="53.1" x2="35.0004" y2="60.3" gradientUnits="userSpaceOnUse"><stop stop-color="#FF00EA"></stop><stop offset="1" stop-color="#741FF5"></stop></linearGradient><linearGradient id="paint3_linear_524_496" x1="51.4008" y1="53.1" x2="51.4008" y2="60.3" gradientUnits="userSpaceOnUse"><stop stop-color="#FF00EA"></stop><stop offset="1" stop-color="#741FF5"></stop></linearGradient><linearGradient id="paint4_linear_524_496" x1="35" y1="0" x2="35" y2="70" gradientUnits="userSpaceOnUse"><stop stop-color="#FF00EA"></stop><stop offset="1" stop-color="#741FF5"></stop></linearGradient><clipPath id="clip0_524_496"><rect width="70" height="70" fill="white"></rect></clipPath></defs></svg>