<svg xmlns="http://www.w3.org/2000/svg" width="70" height="66" viewBox="0 0 70 66" fill="none"><path d="M52.4008 65.8C49.9008 65.8 47.6008 64.4 46.4008 62.1C45.6008 60.5 45.4008 58.6001 46.0008 56.9001C46.6008 55.2001 47.8008 53.8 49.4008 53C50.5008 52.5 50.9008 51.7001 50.8008 50.5C50.8008 50.3 50.8008 50 50.8008 49.7001C50.8008 49.5 50.8008 49.3 50.8008 49.1V47.8L49.6008 48.3C48.9008 48.6 48.2008 48.8 47.5008 49.1C46.0008 49.7 44.6008 50.2001 43.1008 50.7001C40.4008 51.7001 37.7008 52.2001 35.1008 52.2001C32.4008 52.2001 29.7008 51.7001 27.0008 50.7001C21.3008 48.5 16.6008 46.8 12.2008 45.2001C8.30078 43.8 5.80078 40.2001 5.80078 36.2001C5.80078 35.3 5.80078 34.4001 5.80078 33.5C5.80078 30.1 5.80078 26.5 5.80078 23C5.80078 21.7001 5.30078 21 4.10078 20.7001C2.90078 20.4001 1.90078 19.7 1.20078 18.8C0.100781 17.5 -0.199219 15.7 0.300781 14.1C0.800781 12.5 1.90078 11.2 3.50078 10.5C4.90078 10 6.40078 9.40005 8.20078 8.80005C8.40078 8.70005 8.70078 8.70005 8.90078 8.70005C9.60078 8.70005 10.2008 9.10005 10.4008 9.70005C10.7008 10.6 10.3008 11.5 9.30078 11.9C7.60078 12.6 6.20078 13.1 4.80078 13.6C3.60078 14 3.30078 14.9 3.30078 15.5C3.30078 16.1 3.60078 17 4.80078 17.4C8.00078 18.6 11.1008 19.8 14.3008 20.9C16.6008 21.7 18.8008 22.6 21.1008 23.4C21.7008 23.6 22.4008 23.9 23.0008 24.1C25.2008 24.9 27.4008 25.7001 29.6008 26.5C31.4008 27.1 33.2008 27.5 35.1008 27.5C36.9008 27.5 38.7008 27.2001 40.5008 26.5C46.3008 24.4 52.1008 22.2001 57.8008 20.1C60.0008 19.3001 62.2008 18.4 64.5008 17.6C64.6008 17.6 64.7008 17.5 64.7008 17.5C65.0008 17.4 65.4008 17.3 65.7008 17C66.2008 16.6 66.7008 16 66.7008 15.3C66.7008 14.6 66.1008 13.8 65.5008 13.5C63.6008 12.7 61.7008 12 59.9008 11.4L59.0008 11.3C57.5008 10.7 55.9008 10.2 54.4008 9.60005C49.9008 7.90005 45.2008 6.10005 40.5008 4.50005C38.7008 3.80005 36.9008 3.50005 35.0008 3.50005C33.2008 3.50005 31.3008 3.80005 29.4008 4.50005C28.6008 4.80005 27.9008 5.10005 27.1008 5.30005C26.5008 5.50005 25.8008 5.80005 25.2008 6.00005C24.9008 6.10005 24.6008 6.20005 24.4008 6.20005C23.7008 6.20005 23.1008 5.80005 22.9008 5.20005C22.7008 4.80005 22.8008 4.40005 22.9008 4.00005C23.1008 3.60005 23.5008 3.20005 24.1008 3.00005C24.6008 2.80005 25.2008 2.60005 25.7008 2.40005C27.7008 1.60005 29.7008 0.900049 31.7008 0.600049C32.8008 0.400049 33.8008 0.300049 34.9008 0.300049C37.4008 0.300049 39.8008 0.800049 42.3008 1.70005C44.3008 2.40005 46.3008 3.20005 48.3008 3.90005C54.2008 6.10005 60.2008 8.30005 66.2008 10.5C68.5008 11.3 69.9008 13.3 69.9008 15.6C69.9008 17.9 68.5008 19.9001 66.3008 20.7001C64.5008 21.4001 64.2008 21.7001 64.2008 23.6V36.1C64.2008 40.3 61.7008 43.9 57.7008 45.3C57.4008 45.4 57.1008 45.5 56.9008 45.6C56.3008 45.8 55.8008 46 55.3008 46.2001C54.4008 46.5 53.9008 47.1001 54.0008 48.2001C54.0008 49.2001 54.0008 50.2 54.0008 51.1C53.9008 52.3 54.6008 52.7001 55.2008 53C57.7008 54.2001 59.1008 56.2001 59.1008 58.9001C59.2008 61.7001 58.0008 63.8 55.5008 65.1C54.5008 65.6 53.4008 65.8 52.4008 65.8ZM52.4008 55.6C50.5008 55.6 48.9008 57.2 48.9008 59.1C48.9008 61 50.5008 62.6 52.3008 62.6C54.2008 62.6 55.8008 61 55.8008 59.1C55.8008 57.1 54.3008 55.6 52.4008 55.6ZM9.10078 23.8C9.10078 23.9 9.10078 23.9 9.10078 24C9.10078 24.1 9.10078 24.3 9.10078 24.4C9.10078 25.5 9.10078 26.7 9.10078 27.8C9.10078 30.7 9.10078 33.6 9.10078 36.6C9.20078 39 10.5008 40.9 12.8008 41.8C17.7008 43.7001 23.6008 45.9001 29.5008 48C31.3008 48.6 33.2008 49 35.0008 49C36.9008 49 38.8008 48.7001 40.7008 48C42.4008 47.4001 44.0008 46.8 45.6008 46.2001C46.8008 45.7001 48.1008 45.3 49.4008 44.8C50.6008 44.4 50.7008 43.5 50.7008 42.8C50.7008 39.2001 50.7008 35.4001 50.7008 31.9001V26.6L49.6008 26.9C49.5008 26.9 49.4008 26.9 49.4008 27C49.3008 27 49.1008 27.1 49.0008 27.1C48.4008 27.3001 47.8008 27.5 47.2008 27.7001C45.8008 28.2001 44.3008 28.8 42.9008 29.3C40.3008 30.3 37.6008 30.9001 35.0008 30.9001C32.8008 30.9001 30.5008 30.5 28.4008 29.7001C25.2008 28.6 22.0008 27.4001 19.0008 26.2001C17.6008 25.7001 16.2008 25.1 14.8008 24.6C13.8008 24.2001 10.4008 23 10.4008 23L9.30078 22.6L9.10078 23.8ZM59.7008 23.1C59.3008 23.3001 58.8008 23.4 58.4008 23.6C57.4008 24 56.4008 24.4001 55.4008 24.7001C54.4008 25 54.0008 25.6 54.0008 26.6C54.0008 30.1 54.0008 33.7 54.0008 37.1C54.0008 38.4 54.0008 39.6001 54.0008 40.9001C54.0008 41.1001 54.0008 41.2001 54.0008 41.4001C54.0008 41.5 54.0008 41.6001 54.0008 41.7001L54.1008 42.9001L55.3008 42.4001L55.9008 42.2001C56.3008 42 56.7008 41.9001 57.1008 41.7001C59.6008 40.7001 61.0008 38.6 61.0008 36C61.0008 32.3 61.0008 28.5 61.0008 24.9V24.5C61.0008 24.3 61.0008 24.1 61.0008 23.9C61.0008 23.8 61.0008 23.7001 61.0008 23.6L60.9008 22.4L59.7008 23.1Z" fill="url(#paint0_linear_524_479)"></path><path d="M16.0007 9.20007C15.8007 9.20007 15.6007 9.20007 15.5007 9.10007C14.9007 8.90007 14.6007 8.50007 14.5007 7.80007C14.4007 7.40007 14.4007 6.80007 15.0007 6.50007C15.5007 6.20007 16.1007 6.00007 16.6007 5.80007C16.7007 5.80007 16.8007 5.70007 16.9007 5.70007C17.7007 5.70007 18.3007 6.00007 18.6007 6.60007C18.9007 7.00007 18.9007 7.50007 18.6007 8.00007C18.3007 8.60007 17.0007 9.20007 16.0007 9.20007Z" fill="url(#paint1_linear_524_479)"></path><defs><linearGradient id="paint0_linear_524_479" x1="34.9836" y1="0.300049" x2="34.9836" y2="65.8" gradientUnits="userSpaceOnUse"><stop stop-color="#FF00EA"></stop><stop offset="1" stop-color="#741FF5"></stop></linearGradient><linearGradient id="paint1_linear_524_479" x1="16.6385" y1="5.70007" x2="16.6385" y2="9.20007" gradientUnits="userSpaceOnUse"><stop stop-color="#FF00EA"></stop><stop offset="1" stop-color="#741FF5"></stop></linearGradient></defs></svg>