<svg xmlns="http://www.w3.org/2000/svg" width="70" height="70" viewBox="0 0 70 70" fill="none"><g clip-path="url(#clip0_540_131)"><path fill-rule="evenodd" clip-rule="evenodd" d="M34.995 70C34.6351 70 34.2851 69.92 33.9551 69.76L0.789887 53.15C0.309956 52.9 0 52.4 0 51.86V18.25C0 17.7 0.309956 17.2 0.789887 16.96L34.3551 0.15C34.765 -0.05 35.235 -0.05 35.6449 0.15L68.8102 16.76C69.5401 17.13 70 17.85 70 18.64V25.1C70 25.89 69.3601 26.54 68.5602 26.54C67.7603 26.54 67.1204 25.9 67.1204 25.1V20.4658L36.3362 34.3263V46.2555L47.1225 41.4001V37.4801C47.1225 36.4101 47.7824 35.4301 48.8123 34.9601L52.4658 33.317C52.4435 33.1508 52.432 32.9816 52.432 32.8099C52.432 30.5199 54.4817 28.6599 57.0013 28.6599C59.5209 28.6599 61.5707 30.5199 61.5707 32.8099C61.5707 35.0999 59.5209 36.9599 57.0013 36.9599C55.7928 36.9599 54.6925 36.532 53.8745 35.8341L49.9921 37.5801V41.5001C49.9921 42.5701 49.3322 43.5501 48.3024 44.0201L36.3362 49.4024V66.3881L67.1104 50.97V44.6435L54.6834 50.5819C54.7025 50.7355 54.7123 50.8917 54.7123 51.0499C54.7123 53.3399 52.6626 55.1999 50.1429 55.1999C47.6233 55.1999 45.5736 53.3399 45.5736 51.0499C45.5736 48.7599 47.6233 46.8999 50.1429 46.8999C51.3659 46.8999 52.4781 47.3381 53.299 48.0509L67.1104 41.451V37.53C67.1104 36.74 67.7503 36.09 68.5502 36.09C69.3501 36.09 69.99 36.73 69.99 37.53V51.46C69.99 52.25 69.5401 52.97 68.8002 53.34L36.0249 69.75C35.6949 69.91 35.345 69.99 34.985 69.99L34.995 70ZM33.4562 48.4833V48.4817V45.9898L15.3136 37.7659C14.4873 38.51 13.3505 38.9699 12.0976 38.9699C9.57793 38.9699 7.52822 37.1099 7.52822 34.8199C7.52822 32.5299 9.57793 30.6699 12.0976 30.6699C14.6172 30.6699 16.6669 32.5299 16.6669 34.8199C16.6669 34.9532 16.66 35.0851 16.6464 35.2152L33.4562 42.835V34.3298L2.87959 20.474V41.9191L19.4632 49.4301C20.29 48.6824 21.4295 48.22 22.6859 48.22C25.2055 48.22 27.2552 50.08 27.2552 52.37C27.2552 54.66 25.2055 56.52 22.6859 56.52C20.1663 56.52 18.1166 54.66 18.1166 52.37C18.1166 52.2396 18.1232 52.1107 18.1362 51.9834L2.87959 45.0734V50.97L33.4562 66.289V48.4833ZM34.8915 31.8256L4.77787 18.1795L12.3069 14.4098L12.3286 14.42L19.1775 17.5198C19.1706 17.6123 19.1672 17.7058 19.1672 17.7999C19.1672 20.0899 21.2169 21.9499 23.7365 21.9499C26.2562 21.9499 28.3059 20.0899 28.3059 17.7999C28.3059 15.5099 26.2562 13.6499 23.7365 13.6499C22.439 13.6499 21.2662 14.1431 20.4336 14.9343L15.6151 12.7534L34.995 3.05L65.2111 18.1743L55.8281 22.3989C55.7298 22.3092 55.6175 22.2316 55.4924 22.17L43.9572 16.4786C43.9949 16.264 44.0146 16.044 44.0146 15.8199C44.0146 13.5299 41.9649 11.6699 39.4452 11.6699C36.9256 11.6699 34.8759 13.5299 34.8759 15.8199C34.8759 18.1099 36.9256 19.9699 39.4452 19.9699C40.5939 19.9699 41.6449 19.5833 42.4486 18.9457L52.4919 23.901L34.8915 31.8256ZM57.0013 31.5299C56.0814 31.5299 55.3116 32.1099 55.3116 32.8099C55.3116 33.5099 56.0814 34.0899 57.0013 34.0899C57.9212 34.0899 58.6911 33.5099 58.6911 32.8099C58.6911 32.1099 57.9212 31.5299 57.0013 31.5299ZM48.4532 51.0499C48.4532 50.3499 49.223 49.7699 50.1429 49.7699C51.0628 49.7699 51.8327 50.3499 51.8327 51.0499C51.8327 51.7499 51.0628 52.3299 50.1429 52.3299C49.223 52.3299 48.4532 51.7499 48.4532 51.0499ZM12.0976 33.5399C11.1777 33.5399 10.4078 34.1199 10.4078 34.8199C10.4078 35.5199 11.1777 36.0999 12.0976 36.0999C13.0174 36.0999 13.7873 35.5199 13.7873 34.8199C13.7873 34.1199 13.0174 33.5399 12.0976 33.5399ZM37.7555 15.8199C37.7555 15.1199 38.5254 14.5399 39.4452 14.5399C40.3651 14.5399 41.135 15.1199 41.135 15.8199C41.135 16.5199 40.3651 17.0999 39.4452 17.0999C38.5254 17.0999 37.7555 16.5199 37.7555 15.8199ZM23.7365 16.5199C22.8167 16.5199 22.0468 17.0999 22.0468 17.7999C22.0468 18.4999 22.8167 19.0799 23.7365 19.0799C24.6564 19.0799 25.4263 18.4999 25.4263 17.7999C25.4263 17.0999 24.6564 16.5199 23.7365 16.5199ZM20.9961 52.37C20.9961 51.67 21.766 51.09 22.6859 51.09C23.6058 51.09 24.3757 51.67 24.3757 52.37C24.3757 53.07 23.6058 53.65 22.6859 53.65C21.766 53.65 20.9961 53.07 20.9961 52.37ZM68.4302 32.77C68.4335 32.77 68.4369 32.77 68.4402 32.77H68.4202C68.4235 32.77 68.4269 32.77 68.4302 32.77ZM67.4202 32.35C67.6878 32.6177 68.0537 32.7674 68.4302 32.77C68.8067 32.7674 69.1726 32.6177 69.4402 32.35C69.5102 32.28 69.5602 32.22 69.6202 32.13C69.6702 32.05 69.7202 31.97 69.7502 31.88C69.7902 31.79 69.8202 31.71 69.8402 31.61C69.8702 31.52 69.8702 31.43 69.8702 31.33C69.8702 30.95 69.7202 30.58 69.4502 30.31C68.9202 29.77 67.9602 29.77 67.4202 30.31C67.1502 30.58 67.0002 30.95 67.0002 31.33C67.0002 31.43 67.0102 31.52 67.0302 31.61C67.0468 31.6932 67.0704 31.7625 67.0951 31.8352C67.1001 31.85 67.1051 31.8649 67.1102 31.88C67.1402 31.97 67.1902 32.05 67.2402 32.13C67.3002 32.22 67.3502 32.28 67.4202 32.35Z" fill="url(#paint0_linear_540_131)"></path></g><defs><linearGradient id="paint0_linear_540_131" x1="35" y1="0" x2="35" y2="70" gradientUnits="userSpaceOnUse"><stop stop-color="#FF00EA"></stop><stop offset="1" stop-color="#741FF5"></stop></linearGradient><clipPath id="clip0_540_131"><rect width="70" height="70" fill="white"></rect></clipPath></defs></svg>