<svg xmlns="http://www.w3.org/2000/svg" width="74" height="70" viewBox="0 0 74 70" fill="none"><g clip-path="url(#clip0_524_524)"><path d="M70.112 5.30303H50.6247C50.6247 5.30303 50.6247 5.30303 50.5187 5.30303C49.7774 4.66667 49.036 4.0303 48.1887 3.39394C47.6592 3.07576 47.0237 3.18182 46.706 3.71212C46.3883 4.24242 46.4942 4.87879 47.0237 5.19697C51.7897 8.48485 54.6492 14 54.6492 19.8333C54.6492 29.5909 46.706 37.6515 36.8564 37.6515C27.1128 37.6515 19.0637 29.697 19.0637 19.8333C19.1696 10.0758 27.1128 2.12121 36.9624 2.12121C38.8687 2.12121 40.7751 2.43939 42.6815 3.07576C43.211 3.28788 43.8465 2.9697 44.0583 2.43939C44.2701 1.90909 43.9524 1.27273 43.4228 1.06061C41.4105 0.318182 39.1864 0 37.0683 0C26.0537 0 17.1573 8.90909 17.1573 19.9394C17.1573 30.9697 26.0537 39.8788 37.0683 39.8788C48.0828 39.8788 56.9792 30.9697 56.9792 19.9394C56.9792 15.3788 55.3906 11.0303 52.6369 7.5303H70.2179C71.1711 7.5303 72.0183 8.37879 72.0183 9.33333V43.4848H63.4397C62.8042 43.4848 62.3806 44.0151 62.3806 44.5455C62.3806 45.0758 62.9101 45.6061 63.4397 45.6061H72.0183V51.3333C72.0183 52.2879 71.1711 53.1364 70.2179 53.1364H4.02455C3.07137 53.1364 2.2241 52.2879 2.2241 51.3333V45.6061H57.9324C58.5679 45.6061 58.9915 45.0758 58.9915 44.5455C58.9915 44.0151 58.4619 43.4848 57.9324 43.4848H2.2241V9.33333C2.2241 8.27273 2.96546 7.42424 4.02455 7.42424H16.9455C17.5809 7.42424 18.0046 6.89394 18.0046 6.36364C18.0046 5.83333 17.475 5.30303 16.9455 5.30303H4.02455C1.80046 5.30303 0 7.10606 0 9.33333V51.4394C0 53.6667 1.80046 55.4697 4.02455 55.4697H27.8541V67.8788H24.571C23.9355 67.8788 23.5119 68.4091 23.5119 68.9394C23.5119 69.5758 24.0414 70 24.571 70H49.4596C50.0951 70 50.5187 69.4697 50.5187 68.9394C50.5187 68.303 49.9892 67.8788 49.4596 67.8788H46.1765V55.3636H70.2179C72.442 55.3636 74.2424 53.5606 74.2424 51.3333V9.33333C74.1365 7.10606 72.3361 5.30303 70.112 5.30303ZM43.9524 67.8788H29.9723V55.3636H43.9524V67.8788Z" fill="url(#paint0_linear_524_524)"></path><path d="M29.2308 11.1363C29.0189 9.86362 27.9599 9.01514 26.6889 9.01514H25.5239C24.8885 9.01514 24.4648 9.54544 24.4648 10.0757C24.4648 10.7121 24.9944 11.1363 25.5239 11.1363H26.6889C26.9008 11.1363 27.1126 11.2424 27.1126 11.4545L30.2899 28.5303C30.3958 29.0606 30.8194 29.3788 31.3489 29.3788H32.0903C31.7726 29.697 31.5608 30.2273 31.5608 30.7576C31.5608 31.9242 32.514 32.7727 33.573 32.7727C34.738 32.7727 35.5853 31.8182 35.5853 30.7576C35.5853 30.2273 35.3735 29.803 35.0558 29.3788H39.504C39.1862 29.697 38.9744 30.2273 38.9744 30.7576C38.9744 31.9242 39.9276 32.7727 40.9867 32.7727C42.1517 32.7727 42.999 31.8182 42.999 30.7576C42.999 30.2273 42.7872 29.803 42.4694 29.3788H43.4226C44.0581 29.3788 44.4817 28.8485 44.4817 28.3182C44.4817 27.6818 43.9522 27.2576 43.4226 27.2576H32.1962L31.7726 24.9242H43.9522C44.4817 24.9242 44.9053 24.5 45.0112 24.0757L46.9176 13.8939C47.0235 13.4697 46.9176 13.1515 46.5999 12.8333C46.3881 12.5151 45.9644 12.4091 45.6467 12.4091H29.4426L29.2308 11.1363ZM30.8194 19.7273H33.7849L33.9967 22.803H31.3489L30.8194 19.7273ZM38.5508 19.7273L38.339 22.803H36.2208L36.009 19.7273H38.5508ZM35.7971 17.606L35.5853 14.5303H38.9744L38.7626 17.606H35.7971ZM40.5631 22.803L40.7749 19.7273H43.6344L43.1049 22.803H40.5631ZM44.0581 17.606H40.9867L41.1985 14.5303H44.6935L44.0581 17.606ZM33.3612 14.5303L33.573 17.606H30.3958L29.8662 14.5303H33.3612Z" fill="url(#paint1_linear_524_524)"></path><path d="M7.0962 35.7424H13.5567C14.1921 35.7424 14.6158 35.2121 14.6158 34.6818C14.6158 34.1515 14.0862 33.6212 13.5567 33.6212H7.0962C6.46075 33.6212 6.03711 34.1515 6.03711 34.6818C6.03711 35.2121 6.46075 35.7424 7.0962 35.7424Z" fill="url(#paint2_linear_524_524)"></path><path d="M7.0962 40.6212H19.064C19.6994 40.6212 20.123 40.0909 20.123 39.5606C20.123 38.9242 19.5935 38.5 19.064 38.5H7.0962C6.46075 38.5 6.03711 39.0303 6.03711 39.5606C6.03711 40.197 6.46075 40.6212 7.0962 40.6212Z" fill="url(#paint3_linear_524_524)"></path><path d="M64.3914 11.5607C63.7559 11.5607 63.3323 12.091 63.3323 12.6213V15.3789H60.5786C59.9432 15.3789 59.5195 15.9092 59.5195 16.4395C59.5195 16.9698 60.0491 17.5001 60.5786 17.5001H63.3323V20.2576C63.3323 20.894 63.8618 21.3182 64.3914 21.3182C65.0268 21.3182 65.4505 20.7879 65.4505 20.2576V17.5001H68.2041C68.8396 17.5001 69.2632 16.9698 69.2632 16.4395C69.2632 15.9092 68.7336 15.3789 68.2041 15.3789H65.4505V12.6213C65.5564 12.091 65.0268 11.5607 64.3914 11.5607Z" fill="url(#paint4_linear_524_524)"></path></g><defs><linearGradient id="paint0_linear_524_524" x1="37.1212" y1="0" x2="37.1212" y2="70" gradientUnits="userSpaceOnUse"><stop stop-color="#FF00EA"></stop><stop offset="1" stop-color="#741FF5"></stop></linearGradient><linearGradient id="paint1_linear_524_524" x1="35.7111" y1="9.01514" x2="35.7111" y2="32.7727" gradientUnits="userSpaceOnUse"><stop stop-color="#FF00EA"></stop><stop offset="1" stop-color="#741FF5"></stop></linearGradient><linearGradient id="paint2_linear_524_524" x1="10.3264" y1="33.6212" x2="10.3264" y2="35.7424" gradientUnits="userSpaceOnUse"><stop stop-color="#FF00EA"></stop><stop offset="1" stop-color="#741FF5"></stop></linearGradient><linearGradient id="paint3_linear_524_524" x1="13.0801" y1="38.5" x2="13.0801" y2="40.6212" gradientUnits="userSpaceOnUse"><stop stop-color="#FF00EA"></stop><stop offset="1" stop-color="#741FF5"></stop></linearGradient><linearGradient id="paint4_linear_524_524" x1="64.3914" y1="11.5607" x2="64.3914" y2="21.3182" gradientUnits="userSpaceOnUse"><stop stop-color="#FF00EA"></stop><stop offset="1" stop-color="#741FF5"></stop></linearGradient><clipPath id="clip0_524_524"><rect width="74" height="70" fill="white"></rect></clipPath></defs></svg>